<?xml version="1.0" encoding="utf-8"?>
<!-- Generator: Adobe Illustrator 27.9.1, SVG Export Plug-In . SVG Version: 6.00 Build 0)  -->
<svg version="1.1" id="Layer_1" xmlns="http://www.w3.org/2000/svg" xmlns:xlink="http://www.w3.org/1999/xlink" x="0px" y="0px"
	 width="256px" height="256px" viewBox="0 0 256 256" style="enable-background:new 0 0 256 256;" xml:space="preserve">
<circle style="fill:#FDBA12;" cx="128" cy="128" r="93"/>
<path d="M256,125h-27.048c-1.563-53.312-44.64-96.388-97.952-97.952V0h-6v27.048C71.688,28.612,28.612,71.688,27.048,125H0v6h27.048
	c1.563,53.312,44.64,96.388,97.952,97.952V256h6v-27.048c53.312-1.563,96.388-44.64,97.952-97.952H256V125z M128,213
	c-46.869,0-85-38.131-85-85s38.131-85,85-85s85,38.131,85,85S174.869,213,128,213z"/>
</svg>
