<?xml version="1.0" encoding="utf-8"?>
<!-- Generator: Adobe Illustrator 27.9.1, SVG Export Plug-In . SVG Version: 6.00 Build 0)  -->
<svg version="1.1" id="Layer_1" xmlns="http://www.w3.org/2000/svg" xmlns:xlink="http://www.w3.org/1999/xlink" x="0px" y="0px"
	 width="256px" height="256px" viewBox="0 0 256 256" style="enable-background:new 0 0 256 256;" xml:space="preserve">
<path style="fill:#402B2F;" d="M37.914,0v49.408v5.426c0,21.726,0,94.22,0,112.268c0,67.971,88.885,88.898,88.885,88.898
	s88.898-20.926,88.898-88.898c0-18.104,0-90.869,0-112.268V49.61V0H37.914z"/>
<path style="fill:#ACDCD4;" d="M126.799,245.535c0,0,78.445-20.916,78.445-78.432V61.721h-78.445H48.375v105.381
	C48.375,224.619,126.799,245.535,126.799,245.535z"/>
<polygon style="fill:#FFFFFF;" points="91.661,10.726 88.858,10.726 88.858,26.878 83.048,10.726 80.032,10.726 80.032,33.92 
	82.831,33.92 82.831,17.79 88.693,33.92 91.661,33.92 "/>
<path style="fill:#FFFFFF;" d="M100.997,10.199c-6.014,0-6.014,8.362-6.014,11.51c0,4.765,0,12.738,5.969,12.738
	c6.089,0,6.089-7.583,6.089-11.658C107.04,18.089,107.04,10.199,100.997,10.199z M101.097,31.538c-0.677,0-1.228-0.22-1.676-0.675
	c-1.642-1.637-1.633-5.853-1.627-8.372v-0.353c0-2.696,0-9.033,3.13-9.033c0.517,0,2.071,0,2.837,3.213
	c0.478,1.979,0.478,4.381,0.478,6.034v0.327c0.004,2.317,0.009,6.622-1.603,8.234C102.222,31.333,101.72,31.538,101.097,31.538z"/>
<path style="fill:#FFFFFF;" d="M118.441,27.407c0.064,1.932,0.154,4.571,0.726,6.118l0.145,0.395h2.773l0.002-1.191l-0.282-0.184
	c-0.22-0.18-0.504-1.071-0.542-4.296c-0.006-0.3-0.009-0.558-0.019-0.71c-0.017-2.228-0.192-4.302-1.74-5.4
	c1.445-1.101,1.994-3.334,1.994-5.18c0-5.588-3.595-6.232-6.285-6.232h-4.182V33.92h2.812v-10.35h1.048
	c2.361,0,3.375,0.363,3.505,2.572C118.409,26.482,118.426,26.915,118.441,27.407z M118.687,17.106c0,3.383-2.197,3.56-2.645,3.56
	h-2.199v-7.032h1.708C117.672,13.634,118.687,14.153,118.687,17.106z"/>
<polygon style="fill:#FFFFFF;" points="133.176,18.13 135.757,33.92 138.575,33.92 142.418,10.726 139.643,10.726 137.168,26.313 
	134.649,10.726 131.771,10.726 129.25,26.153 126.919,10.726 124.069,10.726 127.835,33.92 130.659,33.92 "/>
<polygon style="fill:#FFFFFF;" points="154.555,31.008 147.668,31.008 147.668,23.244 153.81,23.244 153.81,20.34 147.668,20.34 
	147.668,13.634 154.433,13.634 154.433,10.726 144.858,10.726 144.858,33.92 154.555,33.92 "/>
<path style="fill:#FFFFFF;" d="M161.938,24.713h3.939c-0.145,3.541-0.589,6.825-3.147,6.825c-3.177,0-3.177-6.697-3.177-9.215
	v-0.311c0-2.292-0.011-6.565,1.652-8.227c0.451-0.462,1.003-0.68,1.68-0.68c0.999,0,2.376,0.449,2.816,4.3l0.064,0.537h2.666V17.34
	c0-4.132-2.353-7.141-5.6-7.141c-6.087,0-6.087,7.892-6.087,11.683c0,4.388,0,12.565,5.862,12.565c1.475,0,2.652-0.527,3.576-1.595
	l0.068,1.067h2.453V21.81h-6.768V24.713z"/>
<rect x="172.224" y="10.726" style="fill:#FFFFFF;" width="2.799" height="23.194"/>
<path style="fill:#FFFFFF;" d="M185.4,10.726h-2.81l-5.218,23.194h2.788l1.499-6.776h4.643l1.447,6.776h2.871L185.4,10.726z
	 M185.697,24.24h-3.424l1.719-7.799L185.697,24.24z"/>
<polygon style="fill:#FFFFFF;" points="205.244,33.92 205.244,10.726 202.43,10.726 202.43,26.878 196.623,10.726 193.6,10.726 
	193.6,33.92 196.406,33.92 196.406,17.79 202.274,33.92 "/>
<polygon style="fill:#FFFFFF;" points="80.265,54.959 82.513,54.959 82.513,47.912 86.569,47.912 86.569,45.599 82.513,45.599 
	82.513,41.567 87.062,41.567 87.062,39.25 80.265,39.25 "/>
<polygon style="fill:#FFFFFF;" points="91.108,39.25 88.858,39.25 88.858,54.959 95.623,54.959 95.623,52.646 91.108,52.646 "/>
<polygon style="fill:#FFFFFF;" points="98.68,45.075 96.515,39.25 94.067,39.25 97.553,48.301 97.553,54.959 99.797,54.959 
	99.797,48.301 103.332,39.25 100.941,39.25 "/>
<polygon style="fill:#FFFFFF;" points="104.897,54.959 107.143,54.959 107.143,47.912 111.21,47.912 111.21,45.599 107.143,45.599 
	107.143,41.567 111.69,41.567 111.69,39.25 104.897,39.25 "/>
<rect x="113.902" y="39.25" style="fill:#FFFFFF;" width="2.244" height="15.709"/>
<path style="fill:#FFFFFF;" d="M122.756,45.916l-0.933-0.464c-0.878-0.448-1.159-0.793-1.159-2.022c0-0.52,0.111-2.214,1.503-2.214
	c0.412,0,0.745,0.138,1.001,0.398c0.352,0.368,0.527,0.975,0.502,1.712l-0.026,0.618h2.229l0.013-0.578
	c0.026-1.405-0.399-2.622-1.191-3.435c-0.655-0.675-1.526-1.028-2.511-1.028c-2.254,0-3.768,1.851-3.768,4.601
	c0,2.791,1.629,3.792,3.155,4.51c0.145,0.07,0.295,0.131,0.44,0.205c1.213,0.541,1.956,0.871,1.956,2.45
	c0,1.452-0.7,2.325-1.859,2.325c-0.444,0-0.779-0.123-1.038-0.39c-0.446-0.441-0.675-1.267-0.662-2.333v-0.602h-2.225l-0.011,0.581
	c-0.03,1.69,0.442,3.112,1.313,4.005c0.677,0.69,1.586,1.058,2.635,1.058c2.485,0,4.084-1.84,4.084-4.679
	C126.204,47.632,124.615,46.838,122.756,45.916z"/>
<polygon style="fill:#FFFFFF;" points="133.825,45.427 130.305,45.427 130.305,39.25 128.059,39.25 128.059,54.959 130.305,54.959 
	130.305,47.739 133.825,47.739 133.825,54.959 136.069,54.959 136.069,39.25 133.825,39.25 "/>
<polygon style="fill:#FFFFFF;" points="140.623,47.912 144.681,47.912 144.681,45.599 140.623,45.599 140.623,41.567 
	145.089,41.567 145.089,39.25 138.381,39.25 138.381,54.959 145.179,54.959 145.179,52.646 140.623,52.646 "/>
<path style="fill:#FFFFFF;" d="M154.301,51.02c0-0.206-0.011-0.378-0.013-0.475c-0.009-1.379-0.115-2.756-1.033-3.564
	c0.865-0.811,1.191-2.228,1.191-3.417c0-2.904-1.417-4.314-4.347-4.314h-2.942v15.709h2.239v-6.831h0.487
	c1.533,0,2.052,0.22,2.126,1.513c0.013,0.221,0.026,0.505,0.038,0.829c0.034,1.292,0.092,3.051,0.485,4.098l0.147,0.39h2.154v-0.598
	l0.045-0.465l-0.275-0.176C154.429,53.503,154.322,52.589,154.301,51.02z M150.653,45.816h-1.256v-4.249h0.931
	c1.326,0,1.877,0.291,1.877,2.094C152.204,45.657,151.018,45.816,150.653,45.816z"/>
<path style="fill:#FFFFFF;" d="M160.783,45.916l-0.937-0.464c-0.873-0.448-1.157-0.788-1.157-2.022c0-0.52,0.113-2.214,1.507-2.214
	c0.406,0,0.747,0.138,0.999,0.398c0.354,0.368,0.529,0.975,0.502,1.712l-0.023,0.618h2.22l0.019-0.578
	c0.026-1.405-0.393-2.622-1.193-3.435c-0.655-0.675-1.52-1.028-2.509-1.028c-2.257,0-3.764,1.851-3.764,4.601
	c0,2.791,1.631,3.792,3.147,4.51c0.154,0.07,0.295,0.131,0.448,0.205c1.208,0.544,1.941,0.871,1.941,2.45
	c0,1.452-0.69,2.325-1.853,2.325c-0.44,0-0.773-0.123-1.046-0.39c-0.423-0.441-0.666-1.267-0.653-2.333l0.017-0.602h-2.233
	l-0.019,0.581c-0.023,1.69,0.442,3.112,1.313,4.005c0.685,0.69,1.601,1.058,2.639,1.058c2.479,0,4.086-1.84,4.086-4.679
	C164.233,47.632,162.638,46.842,160.783,45.916z"/>
<path style="fill:#FFFFFF;" d="M175.539,48.85l-0.015,0.581c-0.034,1.329-0.303,3.562-1.682,3.562c-0.399,0-0.709-0.123-0.971-0.384
	c-1.016-1.028-1.016-3.759-1.016-5.391v-0.436c0-1.368,0-4.204,0.993-5.213c0.246-0.24,0.523-0.353,0.88-0.353
	c1.272,0,1.629,1.549,1.699,2.842l0.034,0.571h2.22l-0.006-0.606c-0.019-3.058-1.586-5.121-3.907-5.121
	c-4.163,0-4.163,5.662-4.163,7.795c0,3.222,0,8.614,4.123,8.614c0.948,0,1.797-0.363,2.461-1.045
	c1.036-1.046,1.623-2.856,1.584-4.829l-0.017-0.587H175.539z"/>
<polygon style="fill:#FFFFFF;" points="182.044,39.25 179.803,39.25 179.803,54.959 186.564,54.959 186.564,52.646 182.044,52.646 
	"/>
<path style="fill:#FFFFFF;" d="M193.579,50.264c0,2.282-0.632,2.729-1.731,2.729c-1.123,0-1.62-0.375-1.62-2.613V39.25h-2.254
	v11.284c0,3.945,2.128,4.777,3.911,4.777c3.531,0,3.937-3.059,3.937-5.36V39.25h-2.242V50.264z"/>
<path style="fill:#FFFFFF;" d="M203.906,46.633c0.728-0.717,1.119-1.828,1.119-3.243c0-1.342-0.365-2.403-1.087-3.155
	c-0.813-0.866-1.96-0.984-2.876-0.984H197.8v15.709h2.271c2.75,0,5.295-0.573,5.295-4.777
	C205.366,48.549,204.849,47.328,203.906,46.633z M200.774,52.646h-0.719v-4.734h0.504c1.776,0,2.562,0.217,2.562,2.259
	C203.12,52.275,202.358,52.646,200.774,52.646z M200.545,45.599h-0.491v-4.033h0.389c1.622,0,2.333,0.173,2.333,1.863
	C202.776,45.296,202.125,45.599,200.545,45.599z"/>
<path style="fill:#402B2F;" d="M186.547,77.718c-0.615,3.031-1.898,4.284-3.326,5.367c-1.432,1.087-6.185,1.455-7.865,2.195
	c-1.687,0.756-2.743,1.717-3.294,2.762c0,0-23.475-2.927-38.507-15.123l-0.956,0.697c4.274,3.485,7.062,6.014,14.56,10.105
	c0,0-44.169-4.87-65.256,10.416l0.999,0.611c9.995-5.779,34.818-10.115,43.968-5.65c0,0-21.868-6.181-44.312,17.665l-18.877,23.292
	l1.022,0.657c8.565-8.369,15.132-19.569,19.236-15.034c4.385,4.864-23.491,26.72-23.491,26.72l0.85,1.136
	c0,0,21.588-16.003,23.952-12.968c2.359,3.032-0.515,6.892-11.14,15.09c-2.541,1.962,3.418-1.787-19.479,12.436l0.598,0.839
	c44.844-25.894,46.306-23.606,47.28-23.149l-15.186,9.618l0.286,0.937l6.473-0.845l-17.192,12.013l0.6,0.739l18.121-8.856
	L85.166,157.1l0.634,0.476l12.005-6.074l-0.89,2.086l2.103,2.009c14.996-13.64,22.449-14.517,22.449-14.517l-7.284,8.768
	l0.807,0.653l5.959-4.517l3.768-2.997l-0.685,1.153l0.211,0.245c-0.028,0.032-0.058,0.062-0.085,0.098l-0.636-0.056l-3.881,5.459
	c0,0,0.073,0.096,0.19,0.244c-12.34,17.327-16.748,37.32-2.442,44.839c13.924,7.321,22.662-5.013,27.026-12.34
	c2.658-4.468,9.97-18.2,9.97-18.2l-19.218,17.517c0,0,4.014-0.48,3.187,0.775c-0.831,1.251-7.446,12.47-18.753,6.535
	c-9.763-5.13-5.726-21.17,5.331-35.7c0.186,0.057,0.293,0.087,0.293,0.087l4.208-5.068l-0.107-0.254
	c0.132-0.132,0.248-0.277,0.384-0.412l0.12,0.036l2.267-1.951l1.954-2.276l2.912-2.912l2.455-2.237l1.966-2.419
	c0,0,1.938-0.926,2.101-1.913l0.335,0.024l1.751-1.471l0.293-0.845l2.98-2.225l3.337-2.997l0.431,0.05l2.581-2.198l0.004-0.604
	l3.905-3.295l0.444-0.402l-16.52,26.234l0.649,0.231l19.505-26.498l-11.569,20.779l0.698,0.218l8.559-10.544l-7.515,17.372
	l0.611,0.141l10.493-17.34l-4.808,15.064l0.536,0.216l3.627-5.692l-0.847,9.707l0.681,0.004c0.467-6.742,5.685-18.702,5.685-18.702
	c-2.299,5.41-2.637,18.834-2.637,18.834l0.544-0.03l3.546-13.262l0.371,16.863l0.579-0.068l9.487-54.411l0.805-0.684
	c0,0,2.19-0.794,4.21-4.023c2.022-3.229,1.059-6.083,1.56-7.556c0.5-1.473,8.92-9.816,5.154-12.631
	C188.159,70.938,187.174,74.649,186.547,77.718z M131.908,121.969c3.516-2.119,4.934-1.632,4.934-1.632l-9.761,6.84
	C127.081,127.177,128.383,124.078,131.908,121.969z M137.864,123.608l-1.326,1.822l-0.594,1.289c0,0-3.691,0.252-5.952,0.511
	c0.758-0.449,0.418-0.253,1.195-0.753c2.423-1.529,3.984-2.518,6.968-4.392L137.864,123.608z M189.997,76.147
	c1.2,0.074,0.664,1.246,0.478,2.259c-0.197,1.01-1.894,3.461-2.261,3.325c-0.378-0.13,0.465-1.155,0.954-2.658
	C189.627,77.689,189.531,76.121,189.997,76.147z"/>
<path style="fill:#FFFFFF;" d="M109.78,133.928c5.956-2.948,10.858-3.988,10.858-3.988l4.146-0.502l-21.674,9.562
	C103.11,139.001,103.838,136.881,109.78,133.928z M163.033,109.513l-2.385,1.866l0.224,1.792l2.438-2.214L163.033,109.513z
	 M162.535,113.739l-0.937,0.881l0.231,0.726l1.247-1.093L162.535,113.739z M152.506,117.499c-0.002-0.011-0.011-0.024-0.017-0.042
	c-0.156-0.312-0.361-0.796-0.57-1.365l-2.011,1.519c0.252,0.618,0.329,0.837,0.579,1.458L152.506,117.499z M151.462,114.861
	c-0.105-0.299-0.211-0.596-0.316-0.897l-2.327,0.92c0.177,0.461,0.371,0.945,0.561,1.444L151.462,114.861z M153.673,120.356
	c-0.239-0.782-0.288-0.836-0.598-1.577l-2.171,1.31c0.431,1.082,0.557,1.487,0.835,2.314L153.673,120.356z M152.093,123.231
	c0.299,0.878,0.451,1.515,0.361,1.733l1.731-1.393c0.203-0.361,0.081-1.192-0.177-2.157L152.093,123.231z M139.079,124.117
	l2.135-1.881c-0.088-0.337-0.16-0.635-0.201-0.917l-2.103,1.891C138.96,123.546,138.964,123.691,139.079,124.117z M143.114,127.551
	c-0.737,0.528-1.309,1.273-1.928,1.9c0.111,0.22,0.22,0.44,0.312,0.645c0.549-0.692,1.294-1.285,1.866-1.972
	C143.278,127.936,143.2,127.741,143.114,127.551z M143.742,129.058l-1.904,1.731l1.332,2.412l1.825-1.535L143.742,129.058z
	 M141.485,123.276l-2.111,1.7c0.31,1.034,0.779,2.175,1.264,3.262c0.728-0.622,1.336-1.315,1.938-1.999
	C142.162,125.223,141.769,124.204,141.485,123.276z M139.013,122.292l1.885-1.567l-1.674,0.821L139.013,122.292z M124.72,145.493
	l-0.222,0.015l-2.248,3.458l0.051,0.241l1.319,1.187l1.208,0.628l0.357-0.107l2.842-2.985l-0.103-0.284l-1.416-0.664l-1.031-0.668
	L124.72,145.493z M179.847,85.858l-2.272-0.016l-1.648,1.174l-0.301,1.217l1.552,1.59l1.524-0.28l0.865-1.595l1.072-1.234
	L179.847,85.858z M183.455,84.874l-1.277,0.01l-0.589,0.684l0.538,0.695l1.157-0.306L183.455,84.874z M136.041,131.469l-0.404-1.648
	l2.086,0.948l-2.086-2.858l-5.892,0.396l-3.072,1.928c4.808-0.448,7.007-0.431,7.007-0.431s-3.941,0.668-10.766,2.21l-6.505,3.102
	c8.042-2.479,16.407-4.035,16.407-4.035s-5.367,1.798-17.363,5.869c-11.998,4.086-16.108,10.766-16.108,10.766
	s-0.512-4.43,9.112-9.411l-11.526,2.765l-4.87,2.84l5.922-0.35l-5.292,4.479l5.638-0.83l-2.208,3.661l5.423-3.326l-2.558,4.253
	c0,0,2.957-3.004,5.137-4.276c2.878-1.68,15.081-9.366,18.061-11.029c-3.636,1.031-5.852,1.693-12.596,5.638
	c-7.248,4.232-6.759,5.393-6.759,5.393s-1.936-1.526,5.696-6.341c7.636-4.821,22.171-7.98,22.171-7.98
	c-1.324,0.474-2.428,1.441-3.467,1.776l-9.163,5.141l10.655-4.242l-9.351,9.498l9.086-7.72l5.077-5.973l0.25,0.164l-6.447,9.344
	l0.013-0.043l-1.672,2.107l-0.117,0.903l1.947,1.582l1.838,0.45l-2.671-2.733l2.857,1.565l-2.122-2.65l2.592,1.445l-2.013-2.238
	l3.358,1.416l-2.624-2.415l3.117,1.435l-2.248-2.321l3.32,1.394l-2.357-2.66l3.711,1.605l-2.931-2.743l4.088,1.471l-2.97-2.912
	l4.229,1.557l-2.968-3.352l4.332,1.855l-2.78-3.384l3.843,1.936L136.041,131.469z"/>
<path style="fill:#402B2F;" d="M71.025,155.593c0,0,28.388-13.014,24.09-18.027c-4.302-5.013,32.102-19.002,30.42-11.314
	c-3.23,14.755-45.915,27.161-54.513,30.675L71.025,155.593z"/>
<polygon style="fill:#402B2F;" points="119.464,210.614 122.177,210.614 122.177,208.927 119.464,208.927 119.464,207.085 
	122.45,207.085 122.45,205.401 117.651,205.401 117.651,214.766 122.51,214.766 122.51,213.086 119.464,213.086 "/>
<path style="fill:#402B2F;" d="M126.938,209.192l-0.621-0.237c-0.583-0.235-0.64-0.668-0.64-1.123c0-0.414,0.145-0.903,0.85-0.903
	c0.203,0,0.481,0.041,0.662,0.233c0.173,0.175,0.192,0.423,0.184,0.602l-0.034,0.583h1.808l0.015-0.536
	c0.019-0.709-0.22-1.345-0.664-1.808c-0.482-0.487-1.179-0.76-1.962-0.76c-1.595,0-2.666,1.057-2.666,2.626
	c0,1.616,1.155,2.494,2.239,2.891l0.29,0.102c0.933,0.325,1.168,1.027,1.168,1.582c0,0.871-0.766,0.963-1.08,0.963
	c-0.322,0-0.551-0.083-0.7-0.235c-0.188-0.186-0.282-0.519-0.28-0.926l0.004-0.564h-1.793l-0.013,0.54
	c-0.026,0.848,0.235,1.573,0.737,2.092c0.502,0.504,1.21,0.775,2.054,0.775c1.727,0,2.882-1.065,2.882-2.662
	C129.376,210.689,128.142,209.653,126.938,209.192z"/>
<polygon style="fill:#402B2F;" points="130.228,205.401 130.228,207.085 132.068,207.085 132.068,214.766 133.887,214.766 
	133.887,207.085 135.727,207.085 135.727,205.401 "/>
<path style="fill:#402B2F;" d="M111.748,218.12c-0.135,1.373-0.594,1.723-2.327,1.772l0.019,0.019v0.713v0.843v0.713l-0.028,0.023
	c0.434,0.019,0.862-0.013,1.292-0.057l0.54-0.037c0.096-0.009,0.194-0.01,0.288-0.021v10.837h2.632v-15.47h-2.346L111.748,218.12z"
	/>
<path style="fill:#402B2F;" d="M120.157,217.456c-2.438,0-3.954,1.992-3.954,5.199c0,2.267,0.988,4.908,3.783,4.908
	c0.542,0,1.036-0.107,1.482-0.337c-0.043,0.457-0.113,1.627-0.211,2.039c-0.128,0.547-0.517,1.477-1.168,1.477
	c-0.653,0-1.014-0.201-1.095-1.255l-0.051-0.685h-2.492v0.734c0,2.156,1.401,3.625,3.488,3.646h0.004
	c4.308,0,4.155-5.591,4.21-8.192c0.002-0.297,0.006-0.587,0.013-0.873C124.167,222.473,124.167,217.456,120.157,217.456z
	 M120.157,219.892c1.285,0,1.381,2.237,1.381,2.929c0,2.295-1.021,2.295-1.358,2.295c-0.363,0-1.345,0-1.345-2.528
	C118.836,222.14,118.902,219.892,120.157,219.892z"/>
<path style="fill:#402B2F;" d="M133.432,221.628c0-2.615-1.353-4.172-3.619-4.172c-2.154,0-3.601,1.635-3.601,4.063
	c0,0.534,0,1.919,0.899,2.846c-1.172,1.038-1.349,3.134-1.349,4.249c0,2.647,1.556,4.569,3.698,4.569l0.244-0.011
	c3.454-0.004,4.174-2.506,4.174-4.618c-0.017-1.535-0.465-3.437-1.351-4.214C133.112,223.695,133.432,222.755,133.432,221.628z
	 M129.728,230.742c-1.236-0.028-1.33-1.719-1.33-2.229c0-0.944,0.239-2.818,1.386-2.818c0.467,0,1.469,0.756,1.469,2.818
	C131.252,230.742,130.164,230.742,129.728,230.742z M129.852,223.257c-0.294,0-1.068,0-1.068-1.507l-0.009-0.331
	c0.107-1.526,0.762-1.526,1.02-1.526c0.316,0,1.055,0,1.055,1.695C130.851,222.35,130.676,223.257,129.852,223.257z"/>
<path style="fill:#402B2F;" d="M142.162,224.339c0.581-0.645,0.901-1.584,0.901-2.711c0-2.615-1.351-4.172-3.614-4.172
	c-2.154,0-3.606,1.635-3.606,4.063c0,0.534,0,1.919,0.903,2.846c-1.172,1.038-1.343,3.134-1.343,4.249
	c0,2.647,1.552,4.569,3.687,4.569l0.243-0.011c3.454-0.004,4.18-2.506,4.18-4.618C143.496,227.019,143.044,225.116,142.162,224.339z
	 M139.355,230.742c-1.23-0.028-1.324-1.719-1.324-2.229c0-0.944,0.239-2.818,1.383-2.818c0.476,0,1.465,0.756,1.465,2.818
	C140.879,230.742,139.801,230.742,139.355,230.742z M139.483,223.257c-0.29,0-1.061,0-1.061-1.507l-0.013-0.331
	c0.107-1.526,0.768-1.526,1.018-1.526c0.316,0,1.065,0,1.065,1.695C140.492,222.35,140.309,223.257,139.483,223.257z"/>
<polygon style="fill:#FFFFFF;" points="48.375,56.036 48.375,10.624 75.615,10.624 75.615,56.036 61.996,49.223 "/>
<polygon style="fill:#0098CE;" points="64.259,50.355 64.259,26.52 75.615,26.52 75.615,21.977 64.259,21.977 64.259,10.624 
	59.722,10.624 59.722,21.977 48.375,21.977 48.375,26.52 59.722,26.52 59.722,50.36 61.996,49.223 "/>
<rect x="66.529" y="10.624" style="fill:#EF3742;" width="9.086" height="9.085"/>
<rect x="48.375" y="10.624" style="fill:#EF3742;" width="9.073" height="9.085"/>
<polygon style="fill:#EF3742;" points="57.449,51.497 57.449,28.786 48.375,28.786 48.375,56.036 "/>
<polygon style="fill:#EF3742;" points="66.529,28.786 66.529,51.49 75.615,56.036 75.615,28.786 "/>
<polygon style="fill:none;" points="48.375,56.036 48.375,10.624 75.615,10.624 75.615,56.036 61.996,49.223 "/>
<path style="fill:#FFFFFF;" d="M172.713,92.36c-2.509-1.431-7.502-1.735-13.332-1.582c0,0,6.87,0.875,6.998,2.468
	c0.126,1.588-4.182,2.461-4.182,2.461s6.539-1.146,7.314-0.071c0.775,1.075-5.89,3.28-5.89,3.28s4.097-0.878,3.849,0.758
	c-0.237,1.64-3.99,3.738-5.102,4.087c0,0,5.48-0.515,8.488-3.809c4.714-5.155,3.491-6.656,0.425-5.392
	C171.28,94.56,174.346,93.297,172.713,92.36z"/>
<path style="fill:#FFFFFF;" d="M149.841,91.072c-4.987,0.385-11.245,3.498-13.433,4.353c0,0,6.603-1.831,6.736-0.401
	c0.13,1.434-12.005,4.489-12.005,4.489s10.623-1.496,10.864-0.378c0.246,1.118-13.495,4.935-13.495,4.935s13.919-2.175,14.171-1.37
	c0.241,0.797-6.198,2.476-6.198,2.476s8.35-1.643,8.375-0.318c0.034,1.327-6.123,1.416-6.123,1.416s5.692,1.541,12.128,0.553
	c6.426-0.985,8.644-3.546,8.303-4.554c-0.354-1.019,0.875-2.053,0.421-2.932c-0.457-0.884-5.779,0.342-5.779,0.342
	s4.912-1.772,4.59-2.889c-0.329-1.113,0.369-1.625-0.026-3.124c-0.395-1.483-7.739-0.036-7.739-0.036s6.8-1.138,4.701-2.14
	C154.493,91.093,152.217,90.886,149.841,91.072z"/>
</svg>
