<?xml version="1.0" encoding="utf-8"?>
<!-- Generator: Adobe Illustrator 27.9.1, SVG Export Plug-In . SVG Version: 6.00 Build 0)  -->
<svg version="1.1" id="Layer_1" xmlns="http://www.w3.org/2000/svg" xmlns:xlink="http://www.w3.org/1999/xlink" x="0px" y="0px"
	 width="256px" height="256px" viewBox="0 0 256 256" style="enable-background:new 0 0 256 256;" xml:space="preserve">
<rect x="49.924" y="49.924" style="fill:#6D6E70;" width="156.153" height="156.153"/>
<rect x="67.421" y="67.444" style="fill:#FFFFFF;" width="121.159" height="121.097"/>
<path style="fill:#6D6E70;" d="M136.104,89.95c4.639,0,8.552,0.772,11.708,2.331c3.18,1.544,5.719,3.612,7.672,6.128
	c1.93,2.516,3.327,5.403,4.175,8.721c0.841,3.257,1.289,6.514,1.289,9.91c0,4.631-0.702,8.721-2.122,12.133
	c-1.382,3.473-3.342,6.329-5.812,8.521c-2.501,2.161-5.511,3.859-9.069,4.878c-3.558,1.173-7.471,1.698-11.755,1.698h-18.886v21.734
	H95.051V89.95H136.104z M130.547,130.871c3.597,0,6.545-1.142,8.775-3.303c2.246-2.161,3.373-5.619,3.373-10.265
	c0-4.585-0.988-8.011-2.941-10.389c-1.93-2.346-5.163-3.55-9.733-3.55h-16.717v27.507H130.547z"/>
</svg>
